{
    "$type": "MadEngine.Core.Mesh, MadEngine.Core, Version=1.0.0.0, Culture=neutral, PublicKeyToken=null",
    "$guid": "05cba1b5-1287-485e-8485-da94246575ed",
    "$data": {
        "NameInternal": "NewMesh",
        "_vertices": [
            {
                "Normal": [
                    0,
                    0,
                    1
                ],
                "Position": [
                    -0.5,
                    -0.5,
                    -0.5
                ],
                "TexCoord": [
                    0,
                    0
                ]
            },
            {
                "Normal": [
                    0,
                    0,
                    1
                ],
                "Position": [
                    0.5,
                    -0.5,
                    -0.5
                ],
                "TexCoord": [
                    1,
                    0
                ]
            },
            {
                "Normal": [
                    0,
                    0,
                    1
                ],
                "Position": [
                    0.5,
                    0.5,
                    -0.5
                ],
                "TexCoord": [
                    1,
                    1
                ]
            },
            {
                "Normal": [
                    0,
                    0,
                    1
                ],
                "Position": [
                    -0.5,
                    0.5,
                    -0.5
                ],
                "TexCoord": [
                    0,
                    1
                ]
            },
            {
                "Normal": [
                    0,
                    0,
                    -1
                ],
                "Position": [
                    -0.5,
                    -0.5,
                    0.5
                ],
                "TexCoord": [
                    0,
                    0
                ]
            },
            {
                "Normal": [
                    0,
                    0,
                    -1
                ],
                "Position": [
                    0.5,
                    -0.5,
                    0.5
                ],
                "TexCoord": [
                    1,
                    0
                ]
            },
            {
                "Normal": [
                    0,
                    0,
                    -1
                ],
                "Position": [
                    0.5,
                    0.5,
                    0.5
                ],
                "TexCoord": [
                    1,
                    1
                ]
            },
            {
                "Normal": [
                    0,
                    0,
                    -1
                ],
                "Position": [
                    -0.5,
                    0.5,
                    0.5
                ],
                "TexCoord": [
                    0,
                    1
                ]
            },
            {
                "Normal": [
                    -1,
                    0,
                    0
                ],
                "Position": [
                    -0.5,
                    0.5,
                    0.5
                ],
                "TexCoord": [
                    1,
                    0
                ]
            },
            {
                "Normal": [
                    -1,
                    0,
                    0
                ],
                "Position": [
                    -0.5,
                    0.5,
                    -0.5
                ],
                "TexCoord": [
                    1,
                    1
                ]
            },
            {
                "Normal": [
                    -1,
                    0,
                    0
                ],
                "Position": [
                    -0.5,
                    -0.5,
                    -0.5
                ],
                "TexCoord": [
                    0,
                    1
                ]
            },
            {
                "Normal": [
                    -1,
                    0,
                    0
                ],
                "Position": [
                    -0.5,
                    -0.5,
                    0.5
                ],
                "TexCoord": [
                    0,
                    0
                ]
            },
            {
                "Normal": [
                    -1,
                    0,
                    0
                ],
                "Position": [
                    0.5,
                    0.5,
                    0.5
                ],
                "TexCoord": [
                    1,
                    0
                ]
            },
            {
                "Normal": [
                    -1,
                    0,
                    0
                ],
                "Position": [
                    0.5,
                    0.5,
                    -0.5
                ],
                "TexCoord": [
                    1,
                    1
                ]
            },
            {
                "Normal": [
                    -1,
                    0,
                    0
                ],
                "Position": [
                    0.5,
                    -0.5,
                    -0.5
                ],
                "TexCoord": [
                    0,
                    1
                ]
            },
            {
                "Normal": [
                    -1,
                    0,
                    0
                ],
                "Position": [
                    0.5,
                    -0.5,
                    0.5
                ],
                "TexCoord": [
                    0,
                    0
                ]
            },
            {
                "Normal": [
                    0,
                    1,
                    0
                ],
                "Position": [
                    -0.5,
                    -0.5,
                    -0.5
                ],
                "TexCoord": [
                    0,
                    1
                ]
            },
            {
                "Normal": [
                    0,
                    1,
                    0
                ],
                "Position": [
                    0.5,
                    -0.5,
                    -0.5
                ],
                "TexCoord": [
                    1,
                    1
                ]
            },
            {
                "Normal": [
                    0,
                    1,
                    0
                ],
                "Position": [
                    0.5,
                    -0.5,
                    0.5
                ],
                "TexCoord": [
                    1,
                    0
                ]
            },
            {
                "Normal": [
                    0,
                    1,
                    0
                ],
                "Position": [
                    -0.5,
                    -0.5,
                    0.5
                ],
                "TexCoord": [
                    0,
                    0
                ]
            },
            {
                "Normal": [
                    0,
                    -1,
                    0
                ],
                "Position": [
                    -0.5,
                    0.5,
                    -0.5
                ],
                "TexCoord": [
                    0,
                    1
                ]
            },
            {
                "Normal": [
                    0,
                    -1,
                    0
                ],
                "Position": [
                    0.5,
                    0.5,
                    -0.5
                ],
                "TexCoord": [
                    1,
                    1
                ]
            },
            {
                "Normal": [
                    0,
                    -1,
                    0
                ],
                "Position": [
                    0.5,
                    0.5,
                    0.5
                ],
                "TexCoord": [
                    1,
                    0
                ]
            },
            {
                "Normal": [
                    0,
                    -1,
                    0
                ],
                "Position": [
                    -0.5,
                    0.5,
                    0.5
                ],
                "TexCoord": [
                    0,
                    0
                ]
            }
        ],
        "_indices": [
            0,
            1,
            2,
            0,
            2,
            3,
            4,
            6,
            5,
            4,
            7,
            6,
            8,
            9,
            10,
            8,
            10,
            11,
            12,
            13,
            14,
            12,
            14,
            15,
            16,
            18,
            17,
            16,
            19,
            18,
            20,
            21,
            22,
            20,
            22,
            23
        ],
        "Name": "NewMesh",
        "Guid": "05cba1b5-1287-485e-8485-da94246575ed",
        "_guid": "05cba1b5-1287-485e-8485-da94246575ed"
    }
}